<?xml version="1.0" encoding="UTF-8" standalone="no"?>
<svg
   xmlns:dc="http://purl.org/dc/elements/1.1/"
   xmlns:cc="http://creativecommons.org/ns#"
   xmlns:rdf="http://www.w3.org/1999/02/22-rdf-syntax-ns#"
   xmlns:svg="http://www.w3.org/2000/svg"
   xmlns="http://www.w3.org/2000/svg"
   xmlns:sodipodi="http://sodipodi.sourceforge.net/DTD/sodipodi-0.dtd"
   xmlns:inkscape="http://www.inkscape.org/namespaces/inkscape"
   width="100"
   height="57"
   viewBox="0 0 75.000003 42.750001"
   version="1.1"
   id="svg30"
   sodipodi:docname="55555555555555555555555555555555555555555.svg"
   inkscape:version="0.92.4 (5da689c313, 2019-01-14)">
  <title
     id="title4589">Among Us logo</title>
  <metadata
     id="metadata36">
    <rdf:RDF>
      <cc:Work
         rdf:about="">
        <dc:format>image/svg+xml</dc:format>
        <dc:type
           rdf:resource="http://purl.org/dc/dcmitype/StillImage" />
        <dc:title>Among Us logo</dc:title>
        <dc:date>17 sep 2020</dc:date>
      </cc:Work>
    </rdf:RDF>
  </metadata>
  <defs
     id="defs34" />
  <sodipodi:namedview
     pagecolor="#ffffff"
     bordercolor="#666666"
     borderopacity="1"
     objecttolerance="10"
     gridtolerance="10"
     guidetolerance="10"
     inkscape:pageopacity="0"
     inkscape:pageshadow="2"
     inkscape:window-width="1366"
     inkscape:window-height="705"
     id="namedview32"
     showgrid="false"
     inkscape:showpageshadow="false"
     units="px"
     inkscape:zoom="1"
     inkscape:cx="94.586394"
     inkscape:cy="12.364252"
     inkscape:window-x="-8"
     inkscape:window-y="-8"
     inkscape:window-maximized="1"
     inkscape:current-layer="svg30">
    <inkscape:grid
       type="xygrid"
       id="grid884" />
  </sodipodi:namedview>
  <g
     id="#0e0e0eff"
     transform="matrix(0.14714033,0,0,0.14714033,-9.565223,4.8547598)"
     style="fill:#000000">
    <path
       d="M 570.74125,-30.575544 V 254.55596 H 71.761123 V -30.575544 M 236.43097,56.587301 c -4.45647,24.249609 -8.20439,48.620419 -11.40225,73.065829 -0.45683,3.05801 -0.42887,6.20924 -1.49171,9.15537 -2.29351,-11.89639 -3.57078,-23.97924 -5.9109,-35.87564 -1.92058,-13.061781 -6.54488,-25.592144 -7.60772,-38.793777 -0.20512,-3.580105 -1.60359,-7.029683 -3.76657,-9.863932 -2.24689,-1.165399 -3.67333,1.640881 -3.80385,3.524165 -4.65228,33.041375 -10.00379,65.980204 -15.42056,98.909694 1.67817,0.44752 3.59875,1.06285 5.25828,0.24241 1.09081,-2.12569 0.77382,-4.63363 1.19336,-6.91781 4.2607,-25.61079 8.0366,-51.305503 12.25999,-76.925621 0.48481,1.305246 0.90436,2.638462 1.14676,4.00897 1.88328,9.807993 4.67092,19.420199 6.14398,29.302781 2.20959,13.92885 4.44716,27.85769 6.64743,41.79586 0.48481,2.82492 0.93232,5.69646 1.98584,8.37222 1.10945,1.20269 3.07665,0.47548 4.53106,0.74585 1.10947,-2.93681 1.45442,-6.07872 1.79006,-9.17401 2.63846,-24.0818 6.08804,-48.07969 10.20889,-71.94705 0.44752,-1.799375 0,-4.074232 1.59427,-5.370155 3.12326,24.147054 5.80834,48.340735 8.26966,72.562375 0.47549,4.33528 0.84841,8.71718 1.89261,12.95923 1.10946,1.76209 3.61739,0.7645 5.24896,0.36361 -4.11153,-33.29311 -7.48652,-66.67945 -12.41849,-99.869997 -0.31699,-1.87396 -2.26554,-2.731694 -3.53349,-3.906415 -1.22134,0.960289 -2.62914,1.957869 -2.81561,3.636043 m 93.2412,0.0093 c -1.88329,19.000656 0.96029,38.047927 0.35428,57.085889 0,8.66124 -0.43818,17.31316 -0.68059,25.96508 -0.25173,-0.22376 -0.75518,-0.68059 -1.0069,-0.91367 -6.89916,-26.86011 -11.33699,-54.41014 -20.52966,-80.654912 -0.60601,-1.333215 -0.96961,-3.356347 -2.68508,-3.645365 -1.72479,-0.139848 -4.14882,-0.410221 -5.09979,1.435771 -1.50102,2.862218 -1.07215,6.227888 -1.15607,9.341832 0.23308,30.384268 0.20511,60.796524 0.38225,91.171454 1.47306,1.74345 4.25137,0.82045 6.14398,0.29835 -1.18404,-10.58182 -0.81111,-21.23822 -0.97894,-31.85733 0.0746,-19.30834 -0.41022,-38.625979 0.14918,-57.924976 1.49171,2.31215 2.04178,5.015874 2.78763,7.626367 6.7966,23.60631 11.02001,47.846609 17.16399,71.611419 1.26796,3.44025 1.82735,7.14155 3.23514,10.50723 1.31458,1.03487 4.16747,1.14675 5.37948,-0.25173 0.50345,-2.38673 0.66195,-4.82942 0.91367,-7.25344 1.35187,-19.55073 1.37984,-39.1574 0.97894,-58.736091 -0.38225,-10.889484 -1.06284,-21.806935 -0.13052,-32.687094 0.35427,-2.004486 -0.78315,-3.68266 -2.34012,-4.782796 -1.26796,0.941643 -2.87154,1.873961 -2.88087,3.664012 m 20.38048,2.787634 c -5.52864,8.269667 -7.65433,18.2548 -8.43747,28.034823 -0.99759,12.772772 -0.77383,25.592162 -0.2797,38.383572 0.53142,8.62395 1.5663,17.63947 6.20925,25.13531 1.98583,3.7386 6.00413,5.74309 10.08768,6.17196 3.29109,0.79246 6.17195,-1.42646 8.90364,-2.91816 3.58011,-3.01139 5.1464,-7.70096 6.33977,-12.07354 1.90193,-7.84079 2.14433,-15.97993 1.79937,-24.0072 3.17922,-0.21443 6.46098,0.33564 9.57492,-0.43818 2.43335,-0.59669 4.0183,-4.65228 1.26795,-5.80835 -4.2607,-0.79248 -8.65192,-0.29834 -12.95923,-0.4009 -2.22824,-0.38225 -3.80386,1.95786 -3.51484,3.97168 0.10256,8.59597 0.009,17.28519 -1.78072,25.73199 -0.87638,3.0953 -2.00449,7.04834 -5.37948,8.22305 -3.2538,0.70857 -7.8781,1.39848 -9.72409,-2.1723 -3.71996,-5.7524 -4.48445,-12.79141 -5.05317,-19.46681 -1.04419,-18.59045 -1.77141,-37.63772 3.27244,-55.771319 1.37984,-4.745503 3.80386,-9.901225 8.69853,-11.849771 3.20718,-1.2866 6.44232,1.062843 9.67747,0.61533 1.87396,-1.594264 1.34254,-4.792119 -0.73653,-5.93887 -3.04868,-1.771406 -6.76863,-1.566295 -10.14363,-1.267954 -3.48687,0.316989 -6.02277,3.095298 -7.82216,5.845639 m 83.67562,-5.649851 c -1.23999,0.829763 -1.51969,2.498614 -1.58495,3.878445 0.0746,23.102857 1.61291,46.224361 4.88535,69.094151 0.72721,6.70338 2.0511,13.39742 4.60566,19.65328 1.86464,4.51242 5.20233,8.69853 9.92919,10.35806 4.02761,1.04419 8.94094,0.82976 11.84044,-2.5732 7.47721,-8.94093 8.60531,-21.08905 9.87326,-32.22093 2.56388,-21.01448 1.5663,-42.22473 2.63846,-63.323103 0,-1.575618 -0.12119,-4.670916 -2.46132,-4.251373 -2.00448,-0.316989 -3.13259,1.724789 -3.10462,3.440256 -0.90435,26.449882 0.50346,53.21677 -4.89467,79.30304 -1.02555,4.81076 -2.7317,10.01311 -6.99239,12.93126 -2.99274,2.00448 -7.25344,0.99758 -9.29522,-1.88329 -4.45649,-5.8736 -5.47271,-13.44403 -6.61946,-20.52032 -3.06733,-23.19611 -5.32354,-46.569338 -4.77348,-69.989184 0.33564,-2.228242 -1.56629,-5.444742 -4.04625,-3.897092 m 58.186,2.060424 c -6.42367,6.712694 -10.10633,15.998589 -10.00377,25.293807 0.0279,6.330443 1.9299,12.93126 6.32111,17.630146 4.74551,4.652269 11.45821,6.358419 16.56731,10.507229 5.18369,4.19544 10.11566,9.36982 11.72857,16.04522 2.63846,9.90123 -2.82492,21.96543 -12.93126,25.06073 -4.27934,1.13742 -9.83596,0.98826 -12.57698,-3.04868 -5.72443,-7.43059 -4.29799,-17.38774 -4.66159,-26.13289 0.11187,-2.06043 -1.1654,-3.64538 -2.78764,-4.71755 -3.2165,2.0884 -2.26553,6.19061 -2.5359,9.43508 -0.12121,9.34183 0.55007,19.76516 7.08561,27.07453 1.89262,2.59185 5.21167,3.04868 8.08321,3.87845 6.56352,1.78072 13.42539,-1.41713 18.10563,-5.93888 9.86394,-9.58423 10.83355,-26.20748 2.95545,-37.29274 -4.74551,-7.18819 -12.25999,-11.80317 -19.6626,-15.821464 -3.3377,-1.790052 -6.74067,-3.999648 -8.29764,-7.60772 -4.7082,-10.078366 -0.93232,-22.599406 6.80593,-30.029986 5.15572,-1.034874 11.49548,-0.661947 15.41123,3.328378 1.03488,0.913672 2.11636,2.13501 3.67334,1.622234 2.20959,-1.174722 2.2935,-4.260696 0.62465,-5.957516 -3.31906,-3.300408 -7.85945,-5.603236 -12.60496,-5.668499 -3.84115,-0.04662 -8.45612,-0.950964 -11.2997,2.340121 M 126.58519,66.180861 c -5.12776,10.758957 -8.3629,22.459557 -9.32319,34.355949 -2.00449,17.04279 -2.15365,34.27204 -1.01623,51.38009 -0.10255,2.41471 1.63156,4.21408 3.51484,5.4261 6.12534,-1.35187 12.63292,0.4848 18.66503,-0.98826 0.87638,-4.84806 0.29833,-9.82665 0.79247,-14.72132 0.26105,-2.92748 -0.98826,-7.41193 2.57319,-8.74514 3.23515,-1.09082 8.47478,-1.99517 9.95717,2.09772 1.48239,6.30246 1.08149,12.90328 1.42645,19.33628 0.0373,1.75276 1.78073,2.32148 3.09529,2.96478 7.5984,-1.52901 15.51379,0.19579 23.1588,-0.90436 l 0.44751,-0.75517 c -1.22133,-9.89191 -1.02555,-19.905 -1.93922,-29.82488 2.61981,-1.20269 5.29558,-2.68508 6.85254,-5.21166 1.92059,-3.16056 2.01382,-7.01104 1.88328,-10.60047 -0.45683,-9.36048 -2.34011,-18.637054 -5.46338,-27.475435 -0.93231,-2.405383 -2.22824,-4.68024 -3.85047,-6.684726 -1.6875,-2.023131 -4.54039,-2.125687 -6.90849,-2.759663 -2.10704,-6.367737 -6.14397,-12.306607 -12.34389,-15.262057 -6.08805,-2.834249 -12.9033,-5.015875 -19.69058,-4.139495 -5.74308,1.948546 -9.20198,7.374641 -11.83112,12.511717 m 142.9431,-11.859094 c -1.82734,1.02555 -3.03003,2.834249 -3.89709,4.689563 -3.47754,8.111172 -4.75483,16.958877 -5.20234,25.713349 -0.69924,15.569721 -0.95097,31.260651 1.2866,46.718501 1.10013,6.433 2.452,12.91261 5.02519,18.93539 1.76209,4.53107 6.83391,7.46788 11.63535,6.7966 3.58943,-1.46373 6.13466,-4.71753 7.3187,-8.34425 6.08804,-16.87497 6.71269,-35.10179 6.64743,-52.853153 0,-12.306607 -1.4917,-25.088696 -7.62637,-35.97818 -1.63156,-3.253792 -5.09046,-4.820087 -8.35357,-5.920224 -2.19095,-0.689916 -4.79212,-1.090812 -6.8339,0.242404 z"
       id="path2"
       inkscape:connector-curvature="0"
       style="opacity:1;fill:#000000;stroke-width:0.93231869"
       sodipodi:nodetypes="cccccccccccccccccccccccccccccccccccccccccccccccccccccccccccccccccccccccccccccccccccccccccccccccccccccccccccccccccccccccccccccccccccccccccccccc" />
    <path
       d="m 133.54961,63.859387 c 2.14433,-3.235146 5.7897,-5.864285 9.87326,-4.959935 6.22788,1.081489 12.68885,2.964773 17.47164,7.309378 4.64295,4.5031 5.72445,11.178502 7.25345,17.17331 5.23962,22.24513 4.84805,45.20815 6.09736,67.88214 -5.32354,0.0466 -10.64708,-0.0187 -15.97994,0.0652 -0.81112,-7.71027 0.62465,-15.84008 -2.52658,-23.15879 -1.63156,-3.1792 -5.92955,-1.97651 -8.81974,-2.15366 -4.1022,0.49414 -9.50965,0.40091 -11.86842,4.44716 -2.26553,6.73135 -0.94164,13.94749 -1.51968,20.90259 -4.15814,0.0373 -8.30696,0.0279 -12.4651,0.009 -1.26796,-18.7769 -1.01622,-37.71229 1.74343,-56.34935 1.7248,-10.88016 4.55905,-21.900167 10.74032,-31.167416 m -0.0839,8.595979 c -1.40781,0.475482 -2.85289,1.277277 -3.39364,2.750341 -2.0511,4.801441 -2.67576,10.069041 -3.14192,15.224765 -0.21443,3.13259 2.58252,5.202338 5.03452,6.544877 6.57285,3.589424 14.395,2.526584 21.52724,1.752759 3.24447,-0.587361 8.12983,-1.510357 8.45614,-5.547297 -0.0187,-6.675401 -0.94164,-13.518621 -3.88777,-19.578693 -7.45855,-4.064909 -16.61393,-2.936803 -24.59457,-1.146752 z"
       id="path4"
       inkscape:connector-curvature="0"
       style="opacity:1;fill:#000000;stroke-width:0.93231869" />
    <path
       d="m 271.00135,60.512362 c 2.60117,-1.64088 6.99239,-1.137428 8.1205,2.051102 3.76657,6.162627 5.99481,13.155017 6.73135,20.333871 1.67816,16.399486 0.99757,33.013415 -1.54766,49.282375 -0.7272,4.43784 -1.67817,8.85703 -3.16056,13.1084 -0.8857,2.36809 -2.63846,5.19302 -5.51933,5.05317 -2.9368,0.13985 -4.16745,-3.07665 -4.97858,-5.36083 -5.53797,-17.62083 -5.37015,-36.36976 -4.78279,-54.643211 0.29834,-10.106336 1.17472,-20.408457 5.13707,-29.824877 z"
       id="path6"
       inkscape:connector-curvature="0"
       style="opacity:1;fill:#000000;stroke-width:0.93231869" />
    <path
       d="m 140.65388,75.597279 c 4.4658,-0.06527 9.83596,-1.109459 13.5932,1.90193 2.452,3.468226 2.35877,8.055234 3.44958,12.054882 0.92299,2.666431 -2.12569,3.841153 -4.11153,4.428514 -6.33044,1.221337 -13.00584,1.957869 -19.17778,-0.43819 -1.846,-0.941642 -3.29109,-2.77831 -3.17922,-4.94129 -0.009,-4.008969 1.02555,-8.204404 3.52417,-11.392934 1.79937,-1.006905 3.89709,-1.295923 5.90158,-1.612912 z"
       id="path8"
       inkscape:connector-curvature="0"
       style="opacity:1;fill:#000000;stroke-width:0.93231869" />
    <path
       d="m 171.99843,78.636639 c 1.58494,0.717885 3.15124,1.69682 3.85048,3.374993 4.11152,8.726503 5.3049,18.441268 6.30247,27.932268 0.47549,3.82252 -0.33564,8.48411 -4.40054,10.01311 -1.0815,-13.86358 -2.14434,-27.839043 -5.75241,-41.320371 z"
       id="path10"
       inkscape:connector-curvature="0"
       style="opacity:1;fill:#000000;stroke-width:0.93231869" />
  </g>
  <g
     id="#ffffffff"
     transform="matrix(0.13718169,0,0,0.13718169,1.5018519,1.414961)">
    <path
       d="m 172.92,85.77 c 0.2,-1.8 1.71,-2.87 3.02,-3.9 1.36,1.26 3.45,2.18 3.79,4.19 5.29,35.6 8.91,71.41 13.32,107.12 -1.75,0.43 -4.44,1.5 -5.63,-0.39 -1.12,-4.55 -1.52,-9.25 -2.03,-13.9 -2.64,-25.98 -5.52,-51.93 -8.87,-77.83 -1.71,1.39 -1.23,3.83 -1.71,5.76 -4.42,25.6 -8.12,51.34 -10.95,77.17 -0.36,3.32 -0.73,6.69 -1.92,9.84 -1.56,-0.29 -3.67,0.49 -4.86,-0.8 -1.13,-2.87 -1.61,-5.95 -2.13,-8.98 -2.36,-14.95 -4.76,-29.89 -7.13,-44.83 -1.58,-10.6 -4.57,-20.91 -6.59,-31.43 -0.26,-1.47 -0.71,-2.9 -1.23,-4.3 -4.53,27.48 -8.58,55.04 -13.15,82.51 -0.45,2.45 -0.11,5.14 -1.28,7.42 -1.78,0.88 -3.84,0.22 -5.64,-0.26 5.81,-35.32 11.55,-70.65 16.54,-106.09 0.14,-2.02 1.67,-5.03 4.08,-3.78 2.32,3.04 3.82,6.74 4.04,10.58 1.14,14.16 6.1,27.6 8.16,41.61 2.51,12.76 3.88,25.72 6.34,38.48 1.14,-3.16 1.11,-6.54 1.6,-9.82 3.43,-26.22 7.45,-52.36 12.23,-78.37 z"
       id="path13"
       inkscape:connector-curvature="0"
       style="opacity:1;fill:#ffffff" />
    <path
       d="m 272.93,85.78 c 0.01,-1.92 1.73,-2.92 3.09,-3.93 1.67,1.18 2.89,2.98 2.51,5.13 -1,11.67 -0.27,23.38 0.14,35.06 0.43,21 0.4,42.03 -1.05,63 -0.27,2.6 -0.44,5.22 -0.98,7.78 -1.3,1.5 -4.36,1.38 -5.77,0.27 -1.51,-3.61 -2.11,-7.58 -3.47,-11.27 -6.59,-25.49 -11.12,-51.49 -18.41,-76.81 -0.8,-2.8 -1.39,-5.7 -2.99,-8.18 -0.6,20.7 -0.08,41.42 -0.16,62.13 0.18,11.39 -0.22,22.82 1.05,34.17 -2.03,0.56 -5.01,1.55 -6.59,-0.32 -0.19,-32.58 -0.16,-65.2 -0.41,-97.79 0.09,-3.34 -0.37,-6.95 1.24,-10.02 1.02,-1.98 3.62,-1.69 5.47,-1.54 1.84,0.31 2.23,2.48 2.88,3.91 9.86,28.15 14.62,57.7 22.02,86.51 0.27,0.25 0.81,0.74 1.08,0.98 0.26,-9.28 0.73,-18.56 0.73,-27.85 0.65,-20.42 -2.4,-40.85 -0.38,-61.23 z"
       id="path15"
       inkscape:connector-curvature="0"
       style="opacity:1;fill:#ffffff" />
    <path
       d="m 294.79,88.77 c 1.93,-2.95 4.65,-5.93 8.39,-6.27 3.62,-0.32 7.61,-0.54 10.88,1.36 2.23,1.23 2.8,4.66 0.79,6.37 -3.47,0.48 -6.94,-2.04 -10.38,-0.66 -5.25,2.09 -7.85,7.62 -9.33,12.71 -5.41,19.45 -4.63,39.88 -3.51,59.82 0.61,7.16 1.43,14.71 5.42,20.88 1.98,3.83 6.94,3.09 10.43,2.33 3.62,-1.26 4.83,-5.5 5.77,-8.82 1.92,-9.06 2.02,-18.38 1.91,-27.6 -0.31,-2.16 1.38,-4.67 3.77,-4.26 4.62,0.11 9.33,-0.42 13.9,0.43 2.95,1.24 1.25,5.59 -1.36,6.23 -3.34,0.83 -6.86,0.24 -10.27,0.47 0.37,8.61 0.11,17.34 -1.93,25.75 -1.28,4.69 -2.96,9.72 -6.8,12.95 -2.93,1.6 -6.02,3.98 -9.55,3.13 -4.38,-0.46 -8.69,-2.61 -10.82,-6.62 -4.98,-8.04 -6.09,-17.71 -6.66,-26.96 -0.53,-13.72 -0.77,-27.47 0.3,-41.17 0.84,-10.49 3.12,-21.2 9.05,-30.07 z"
       id="path17"
       inkscape:connector-curvature="0"
       style="opacity:1;fill:#ffffff" />
    <path
       d="m 384.54,82.71 c 2.66,-1.66 4.7,1.79 4.34,4.18 -0.59,25.12 1.83,50.19 5.12,75.07 1.23,7.59 2.32,15.71 7.1,22.01 2.19,3.09 6.76,4.17 9.97,2.02 4.57,-3.13 6.4,-8.71 7.5,-13.87 5.79,-27.98 4.28,-56.69 5.25,-85.06 -0.03,-1.84 1.18,-4.03 3.33,-3.69 2.51,-0.45 2.64,2.87 2.64,4.56 -1.15,22.63 -0.08,45.38 -2.83,67.92 -1.36,11.94 -2.57,24.97 -10.59,34.56 -3.11,3.65 -8.38,3.88 -12.7,2.76 -5.07,-1.78 -8.65,-6.27 -10.65,-11.11 -2.74,-6.71 -4.16,-13.89 -4.94,-21.08 -3.51,-24.53 -5.16,-49.33 -5.24,-74.11 0.07,-1.48 0.37,-3.27 1.7,-4.16 z"
       id="path19"
       inkscape:connector-curvature="0"
       style="opacity:1;fill:#ffffff" />
    <path
       d="m 446.95,84.92 c 3.05,-3.53 8,-2.56 12.12,-2.51 5.09,0.07 9.96,2.54 13.52,6.08 1.79,1.82 1.7,5.13 -0.67,6.39 -1.67,0.55 -2.83,-0.76 -3.94,-1.74 -4.2,-4.28 -11,-4.68 -16.53,-3.57 -8.3,7.97 -12.35,21.4 -7.3,32.21 1.67,3.87 5.32,6.24 8.9,8.16 7.94,4.31 16,9.26 21.09,16.97 8.45,11.89 7.41,29.72 -3.17,40 -5.02,4.85 -12.38,8.28 -19.42,6.37 -3.08,-0.89 -6.64,-1.38 -8.67,-4.16 -7.01,-7.84 -7.73,-19.02 -7.6,-29.04 0.29,-3.48 -0.73,-7.88 2.72,-10.12 1.74,1.15 3.11,2.85 2.99,5.06 0.39,9.38 -1.14,20.06 5,28.03 2.94,4.33 8.9,4.49 13.49,3.27 10.84,-3.32 16.7,-16.26 13.87,-26.88 -1.73,-7.16 -7.02,-12.71 -12.58,-17.21 -5.48,-4.45 -12.68,-6.28 -17.77,-11.27 -4.71,-5.04 -6.75,-12.12 -6.78,-18.91 -0.11,-9.97 3.84,-19.93 10.73,-27.13 z"
       id="path21"
       inkscape:connector-curvature="0"
       style="opacity:1;fill:#ffffff" />
    <path
       d="m 55.1,96.06 c 2.82,-5.51 6.53,-11.33 12.69,-13.42 7.28,-0.94 14.59,1.4 21.12,4.44 6.65,3.17 10.98,9.54 13.24,16.37 2.54,0.68 5.6,0.79 7.41,2.96 1.74,2.15 3.13,4.59 4.13,7.17 3.35,9.48 5.37,19.43 5.86,29.47 0.14,3.85 0.04,7.98 -2.02,11.37 -1.67,2.71 -4.54,4.3 -7.35,5.59 0.98,10.64 0.77,21.38 2.08,31.99 l -0.48,0.81 c -8.2,1.18 -16.69,-0.67 -24.84,0.97 -1.41,-0.69 -3.28,-1.3 -3.32,-3.18 -0.37,-6.9 0.06,-13.98 -1.53,-20.74 -1.59,-4.39 -7.21,-3.42 -10.68,-2.25 -3.82,1.43 -2.48,6.24 -2.76,9.38 -0.53,5.25 0.09,10.59 -0.85,15.79 -6.47,1.58 -13.45,-0.39 -20.02,1.06 -2.02,-1.3 -3.88,-3.23 -3.77,-5.82 -1.22,-18.35 -1.06,-36.83 1.09,-55.11 1.03,-12.76 4.5,-25.31 10,-36.85 m 7.47,-2.49 c -6.63,9.94 -9.67,21.76 -11.52,33.43 -2.96,19.99 -3.23,40.3 -1.87,60.44 4.46,0.02 8.91,0.03 13.37,-0.01 0.62,-7.46 -0.8,-15.2 1.63,-22.42 2.53,-4.34 8.33,-4.24 12.73,-4.77 3.1,0.19 7.71,-1.1 9.46,2.31 3.38,7.85 1.84,16.57 2.71,24.84 5.72,-0.09 11.43,-0.02 17.14,-0.07 C 104.88,163 105.3,138.37 99.68,114.51 98.04,108.08 96.88,100.92 91.9,96.09 86.77,91.43 79.84,89.41 73.16,88.25 68.78,87.28 64.87,90.1 62.57,93.57 m 41.24,15.85 c 3.87,14.46 5.01,29.45 6.17,44.32 4.36,-1.64 5.23,-6.64 4.72,-10.74 -1.07,-10.18 -2.35,-20.6 -6.76,-29.96 -0.75,-1.8 -2.43,-2.85 -4.13,-3.62 z"
       id="path23"
       inkscape:connector-curvature="0"
       style="opacity:1;fill:#ffffff" />
    <path
       d="m 208.42,83.34 c 2.19,-1.43 4.98,-1 7.33,-0.26 3.5,1.18 7.21,2.86 8.96,6.35 6.58,11.68 8.18,25.39 8.18,38.59 0.07,19.04 -0.6,38.59 -7.13,56.69 -1.27,3.89 -4,7.38 -7.85,8.95 -5.15,0.72 -10.59,-2.43 -12.48,-7.29 -2.76,-6.46 -4.21,-13.41 -5.39,-20.31 -2.4,-16.58 -2.13,-33.41 -1.38,-50.11 0.48,-9.39 1.85,-18.88 5.58,-27.58 0.93,-1.99 2.22,-3.93 4.18,-5.03 m 1.58,6.64 c -4.25,10.1 -5.19,21.15 -5.51,31.99 -0.63,19.6 -0.81,39.71 5.13,58.61 0.87,2.45 2.19,5.9 5.34,5.75 3.09,0.15 4.97,-2.88 5.92,-5.42 1.59,-4.56 2.61,-9.3 3.39,-14.06 2.73,-17.45 3.46,-35.27 1.66,-52.86 -0.79,-7.7 -3.18,-15.2 -7.22,-21.81 -1.21,-3.42 -5.92,-3.96 -8.71,-2.2 z"
       id="path25"
       inkscape:connector-curvature="0"
       style="opacity:1;fill:#ffffff" />
    <path
       d="m 62.48,102.79 c 8.56,-1.92 18.38,-3.13 26.38,1.23 3.16,6.5 4.15,13.84 4.17,21 -0.35,4.33 -5.59,5.32 -9.07,5.95 -7.65,0.83 -16.04,1.97 -23.09,-1.88 -2.63,-1.44 -5.63,-3.66 -5.4,-7.02 0.5,-5.53 1.17,-11.18 3.37,-16.33 0.58,-1.58 2.13,-2.44 3.64,-2.95 m 7.71,3.37 c -2.15,0.34 -4.4,0.65 -6.33,1.73 -2.68,3.42 -3.79,7.92 -3.78,12.22 -0.12,2.32 1.43,4.29 3.41,5.3 6.62,2.57 13.78,1.78 20.57,0.47 2.13,-0.63 5.4,-1.89 4.41,-4.75 -1.17,-4.29 -1.07,-9.21 -3.7,-12.93 -4.03,-3.23 -9.79,-2.11 -14.58,-2.04 z"
       id="path27"
       inkscape:connector-curvature="0"
       style="opacity:1;fill:#ffffff" />
  </g>
</svg>
